<svg xmlns="http://www.w3.org/2000/svg">
  <symbol id="tg" viewBox="0 0 32 32">
    <g>
      <path d="M16 0.5c-8.563 0-15.5 6.938-15.5 15.5s6.938 15.5 15.5 15.5c8.563 0 15.5-6.938 15.5-15.5s-6.938-15.5-15.5-15.5zM23.613 11.119l-2.544 11.988c-0.188 0.85-0.694 1.056-1.4 0.656l-3.875-2.856-1.869 1.8c-0.206 0.206-0.381 0.381-0.781 0.381l0.275-3.944 7.181-6.488c0.313-0.275-0.069-0.431-0.482-0.156l-8.875 5.587-3.825-1.194c-0.831-0.262-0.85-0.831 0.175-1.231l14.944-5.763c0.694-0.25 1.3 0.169 1.075 1.219z"/>
    </g>
  </symbol>
  <symbol id="vk" viewBox="0 0 512 512">
    <g>
      <path d="M256,0C114.615,0,0,114.615,0,256S114.615,512,256,512,512,397.385,512,256,397.385,0,256,0ZM392.363,342.9H359.878a23.41,23.41,0,0,1-18.318-8.8c-9.742-12.231-28.934-33.918-49.085-43.233a7.666,7.666,0,0,0-10.916,6.928v32.128A12.974,12.974,0,0,1,268.585,342.9H253.564c-19.534,0-61.6-11.891-95.119-60.719-28.56-41.6-41.291-73.84-48.715-99.98a10.3,10.3,0,0,1,9.922-13.093h32.862a15.226,15.226,0,0,1,14.6,10.861c6.111,20.439,21.939,64.53,49.917,86.486a5.788,5.788,0,0,0,9.371-4.54V210.449c0-10.171-4.408-20.347-11.288-28.3a7.878,7.878,0,0,1,5.946-13.046h50.666a9.838,9.838,0,0,1,9.838,9.837v69.325a5.468,5.468,0,0,0,8.636,4.456c9.3-6.62,17.265-16.4,24.591-27.393,9.22-13.828,20.471-36.686,26.115-48.549A13.457,13.457,0,0,1,353.06,169.1H388.9a8.788,8.788,0,0,1,7.873,12.7c-9.044,18.14-26.659,51.418-43.235,70.942a13.877,13.877,0,0,0,1.623,19.54c10.805,9.232,27.673,26.3,45.859,54.729A10.305,10.305,0,0,1,392.363,342.9Z"/>
    </g>
  </symbol>
  <symbol id="in" viewBox="0 0 512 512">
    <g>
      <path d="M314.757,147.525H197.243a49.717,49.717,0,0,0-49.718,49.718V314.757a49.718,49.718,0,0,0,49.718,49.718H314.757a49.718,49.718,0,0,0,49.717-49.718V197.243A49.717,49.717,0,0,0,314.757,147.525ZM256,324.391A68.391,68.391,0,1,1,324.391,256,68.391,68.391,0,0,1,256,324.391ZM327.242,201.58a16.271,16.271,0,1,1,16.27-16.271A16.271,16.271,0,0,1,327.242,201.58Z"/><path d="M256,211.545A44.455,44.455,0,1,0,300.455,256,44.455,44.455,0,0,0,256,211.545Z"/><path d="M256,0C114.615,0,0,114.615,0,256S114.615,512,256,512,512,397.385,512,256,397.385,0,256,0ZM389.333,312.5A76.836,76.836,0,0,1,312.5,389.333H199.5A76.837,76.837,0,0,1,122.666,312.5V199.5A76.836,76.836,0,0,1,199.5,122.667H312.5A76.836,76.836,0,0,1,389.333,199.5Z"/>    </g>
  </symbol>
    <symbol id="fb" viewBox="0 0 612 612">
    <g>
      <path d="M612,306C612,137.004,474.995,0,306,0C137.004,0,0,137.004,0,306c0,168.995,137.004,306,306,306
		  C474.995,612,612,474.995,612,306z M223.825,306v-58.557h35.885V212.03c0-47.764,14.271-82.175,66.569-82.175h62.201v58.418
		  h-43.785c-21.949,0-26.929,14.577-26.929,29.849v29.32h67.487L376.046,306h-58.278v176.617H259.71V306H223.825z"/>
  </symbol>
</svg>